<?xml version="1.0" encoding="UTF-8"?>
<svg xmlns="http://www.w3.org/2000/svg" xmlns:xlink="http://www.w3.org/1999/xlink" width="100pt" height="100pt" viewBox="0 0 100 100" version="1.1">
<g id="surface5276964">
<rect x="0" y="0" width="100" height="100" style="fill:rgb(42.352941%,45.490196%,46.27451%);fill-opacity:1;stroke:none;"/>
<path style=" stroke:none;fill-rule:nonzero;fill:rgb(100%,100%,100%);fill-opacity:1;" d="M 50 14 C 30.128906 14 14 30.128906 14 50 C 14 69.871094 30.128906 86 50 86 C 69.871094 86 86 69.871094 86 50 C 86 47.890625 85.800781 45.828125 85.453125 43.828125 C 85.371094 43.347656 84.953125 43 84.46875 43 L 50 43 C 49.449219 43 49 43.449219 49 44 L 49 57 C 49 57.550781 49.449219 58 50 58 L 69.347656 58 C 66.195312 65.609375 58.761719 71 50 71 C 38.390625 71 29 61.609375 29 50 C 29 38.390625 38.390625 29 50 29 C 54.585938 29 58.8125 30.46875 62.265625 32.960938 C 62.664062 33.246094 63.210938 33.203125 63.558594 32.855469 L 72.828125 23.585938 C 73.027344 23.386719 73.132812 23.113281 73.117188 22.832031 C 73.105469 22.546875 72.972656 22.285156 72.753906 22.105469 C 66.550781 17.042969 58.625 14 50 14 Z M 50 16 C 57.753906 16 64.847656 18.65625 70.566406 23.019531 L 62.699219 30.886719 C 59.054688 28.460938 54.703125 27 50 27 C 37.308594 27 27 37.308594 27 50 C 27 52.992188 27.578125 55.847656 28.617188 58.46875 L 27.660156 59.078125 C 27.425781 59.226562 27.359375 59.535156 27.507812 59.769531 C 27.65625 60 27.964844 60.070312 28.199219 59.921875 L 29.015625 59.402344 C 32.613281 67.410156 40.660156 73 50 73 C 60.132812 73 68.746094 66.433594 71.804688 57.316406 C 71.90625 57.011719 71.855469 56.675781 71.667969 56.414062 C 71.480469 56.15625 71.175781 56 70.855469 56 L 51 56 L 51 45 L 83.554688 45 C 83.804688 46.640625 84 48.296875 84 50 C 84 60.761719 79.007812 70.34375 71.210938 76.570312 L 67.832031 73.527344 C 67.734375 73.4375 67.601562 73.390625 67.46875 73.394531 C 67.265625 73.40625 67.089844 73.539062 67.023438 73.730469 C 66.957031 73.925781 67.011719 74.136719 67.164062 74.269531 L 70.414062 77.195312 C 64.730469 81.46875 57.664062 84 50 84 C 36.738281 84 25.269531 76.417969 19.660156 65.351562 L 21.765625 64.011719 C 21.957031 63.894531 22.046875 63.664062 21.984375 63.449219 C 21.921875 63.234375 21.726562 63.085938 21.5 63.085938 C 21.40625 63.089844 21.3125 63.117188 21.230469 63.167969 L 19.21875 64.449219 C 17.15625 60.066406 16 55.167969 16 50 C 16 44.636719 17.242188 39.570312 19.449219 35.058594 L 24.230469 38.101562 C 24.382812 38.207031 24.578125 38.222656 24.742188 38.140625 C 24.90625 38.058594 25.011719 37.890625 25.019531 37.707031 C 25.023438 37.523438 24.925781 37.351562 24.765625 37.257812 L 19.90625 34.167969 C 25.601562 23.363281 36.929688 16 50 16 Z M 26.484375 38.453125 C 26.261719 38.457031 26.070312 38.605469 26.011719 38.820312 C 25.953125 39.035156 26.042969 39.261719 26.234375 39.378906 L 27.234375 40.015625 C 27.382812 40.117188 27.578125 40.132812 27.742188 40.050781 C 27.90625 39.96875 28.011719 39.800781 28.019531 39.617188 C 28.023438 39.433594 27.925781 39.261719 27.769531 39.167969 L 26.769531 38.53125 C 26.683594 38.476562 26.585938 38.449219 26.484375 38.449219 Z M 25.5 60.542969 C 25.40625 60.542969 25.3125 60.570312 25.234375 60.621094 L 23.234375 61.894531 C 23.074219 61.988281 22.976562 62.160156 22.980469 62.34375 C 22.988281 62.527344 23.09375 62.695312 23.257812 62.777344 C 23.421875 62.859375 23.617188 62.84375 23.769531 62.742188 L 25.769531 61.46875 C 25.957031 61.347656 26.046875 61.117188 25.984375 60.902344 C 25.921875 60.6875 25.726562 60.539062 25.5 60.542969 Z M 63.691406 69.996094 C 63.488281 70.007812 63.3125 70.140625 63.246094 70.332031 C 63.175781 70.523438 63.234375 70.738281 63.386719 70.871094 L 65.167969 72.472656 C 65.296875 72.601562 65.488281 72.652344 65.667969 72.597656 C 65.84375 72.542969 65.976562 72.394531 66.011719 72.214844 C 66.046875 72.03125 65.980469 71.84375 65.835938 71.726562 L 64.058594 70.128906 C 63.957031 70.035156 63.824219 69.988281 63.691406 69.996094 Z M 63.691406 69.996094 "/>
</g>
</svg>
